<svg class="animated" id="freepik_stories-growing" xmlns="http://www.w3.org/2000/svg" viewBox="0 0 500 500" version="1.1" xmlns:xlink="http://www.w3.org/1999/xlink" xmlns:svgjs="http://svgjs.com/svgjs"><style>svg#freepik_stories-growing:not(.animated) .animable {opacity: 0;}svg#freepik_stories-growing.animated #freepik--Character--inject-1--inject-335 {animation: 0.5s 1 forwards linear lightSpeedLeft,1.5s Infinite  linear wind;animation-delay: 0s,0.5s;}svg#freepik_stories-growing.animated #freepik--Plant--inject-1--inject-335 {animation: 0.5s 1 forwards cubic-bezier(.36,-0.01,.5,1.38) lightSpeedRight;animation-delay: 0s;}            @keyframes lightSpeedLeft {              from {                transform: translate3d(-50%, 0, 0) skewX(20deg);                opacity: 0;              }              60% {                transform: skewX(-10deg);                opacity: 1;              }              80% {                transform: skewX(2deg);              }              to {                opacity: 1;                transform: translate3d(0, 0, 0);              }            }                    @keyframes wind {                0% {                    transform: rotate( 0deg );                }                25% {                    transform: rotate( 1deg );                }                75% {                    transform: rotate( -1deg );                }            }                    @keyframes lightSpeedRight {              from {                transform: translate3d(50%, 0, 0) skewX(-20deg);                opacity: 0;              }              60% {                transform: skewX(10deg);                opacity: 1;              }              80% {                transform: skewX(-2deg);              }              to {                opacity: 1;                transform: translate3d(0, 0, 0);              }            }        </style><!--23-Growing--><g id="freepik--Shadow--inject-1--inject-335" class="animable" style="transform-origin: 250px 416.24px;"><ellipse id="freepik--path--inject-1--inject-335" cx="250" cy="416.24" rx="193.89" ry="11.32" style="fill: rgb(245, 245, 245); transform-origin: 250px 416.24px;" class="animable"></ellipse></g><g id="freepik--Character--inject-1--inject-335" class="animable" style="transform-origin: 213.208px 274.109px;"><path d="M207.34,159.17c-12.7-4.45-7.62-40.22-38.17-21-6.92,4.36-15.32,33-9.52,39.6C167.76,187.06,222.33,164.42,207.34,159.17Z" style="fill: rgb(38, 50, 56); transform-origin: 183.821px 156.26px;" id="el94nifhhiw1g" class="animable"></path><path d="M171.58,193.13c-.25.48-.41.73-.61,1.07l-.58.94c-.39.6-.81,1.18-1.23,1.76a40.94,40.94,0,0,1-2.75,3.29,33,33,0,0,1-6.75,5.51,25.61,25.61,0,0,1-8.38,3.32,23.16,23.16,0,0,1-4.54.46c-.76,0-1.51,0-2.27-.08l-1.11-.13-.56-.07-.78-.14a11.15,11.15,0,0,1-5-2.74,19.58,19.58,0,0,1-3-3.59,38.26,38.26,0,0,1-3.7-7.45A73.25,73.25,0,0,1,126.43,180l4.3-1a111,111,0,0,0,5.64,13.53,35.88,35.88,0,0,0,3.63,5.81,11.92,11.92,0,0,0,2,2.05,3.42,3.42,0,0,0,1.6.77l1.32.07c.51,0,1,0,1.52-.06a17.47,17.47,0,0,0,3-.48,19.19,19.19,0,0,0,5.56-2.49,24.82,24.82,0,0,0,4.85-4.19,28.53,28.53,0,0,0,2.12-2.52c.33-.44.65-.89.95-1.34l.44-.67.35-.57Z" style="fill: rgb(255, 139, 123); transform-origin: 149.005px 194.24px;" id="elrq2baj6cupn" class="animable"></path><path d="M174,182.74c-9,0-16.09,8.32-16.09,8.32l11,14.8s8.87-8.34,9.82-13.06C179.67,187.88,179.4,182.71,174,182.74Z" style="fill: rgb(38, 50, 56); transform-origin: 168.53px 194.3px;" id="elw0fmfbejt" class="animable"></path><path d="M130.3,181.17l3.92-6.5-9.09.23s-.72,4.29,1.68,7Z" style="fill: rgb(255, 139, 123); transform-origin: 129.624px 178.285px;" id="elmarqdjbhlt" class="animable"></path><polygon points="133.86 167.06 127.14 168.49 125.13 174.9 134.22 174.67 133.86 167.06" style="fill: rgb(255, 139, 123); transform-origin: 129.675px 170.98px;" id="el69fh6iri0t5" class="animable"></polygon><polygon points="219.1 407 210.51 407.82 206.13 387.8 214.72 386.98 219.1 407" style="fill: rgb(255, 139, 123); transform-origin: 212.615px 397.4px;" id="elicyqe0500p" class="animable"></polygon><polygon points="297.08 381.08 290.57 386.87 275.08 373.66 281.58 367.87 297.08 381.08" style="fill: rgb(255, 139, 123); transform-origin: 286.08px 377.37px;" id="elnsclr8y0y5l" class="animable"></polygon><path d="M288.22,385.76l3.78-9a.69.69,0,0,1,.82-.41l7.57,1.95a1.41,1.41,0,0,1,.89,1.89c-1.37,3.12-2.19,4.56-3.85,8.53-1,2.44-2.92,8-4.33,11.37s-4.82,2.15-4.54.62c1.28-6.86.49-10.51-.4-13.38A2.29,2.29,0,0,1,288.22,385.76Z" style="fill: rgb(38, 50, 56); transform-origin: 294.719px 389.285px;" id="el6p4c97orpx" class="animable"></path><path d="M209.43,405.22h10.33a.86.86,0,0,1,.82.63l2.24,8.17a1.28,1.28,0,0,1-1.26,1.64c-3.61-.06-5.37-.27-9.91-.27-2.8,0-10,.29-13.88.29s-4.57-3.82-3-4.17c7-1.54,11-3.68,13.2-5.72A2.11,2.11,0,0,1,209.43,405.22Z" style="fill: rgb(38, 50, 56); transform-origin: 208.43px 410.45px;" id="elqb7p0miex8" class="animable"></path><g id="el3sckeztj54t" class=""><polygon points="206.13 387.81 208.39 398.13 217.16 398.13 214.73 386.99 206.13 387.81" style="opacity: 0.2; transform-origin: 211.645px 392.56px;" class="animable" id="elhlf35sas24n"></polygon></g><g id="el6l8rwbi73ep" class=""><polygon points="281.59 367.87 275.08 373.66 283.07 380.47 289.58 374.68 281.59 367.87" style="opacity: 0.2; transform-origin: 282.33px 374.17px;" class="animable" id="elz8a917famr"></polygon></g><path d="M165.6,185.15s-3.61,2.52,18.1,49.52l34.07-9.49c-4.43-13.7-6.83-22.25-8.13-52.55a103.6,103.6,0,0,0-15,2.12,111.47,111.47,0,0,0-15.47,4.31C172.7,181.51,165.6,185.15,165.6,185.15Z" style="fill: rgb(38, 50, 56); transform-origin: 191.573px 203.65px;" id="elad0ijkorgrn" class="animable"></path><path d="M188.26,157.76c.41,5.25,2,14.64,6.39,17a29.43,29.43,0,0,1-7.09,21.39c-11.82-6.14-8.38-17.08-8.38-17.08,5.18-2.87,3.89-6.95,1.84-10.55Z" style="fill: rgb(255, 139, 123); transform-origin: 186.721px 176.955px;" id="elhprz2sjikh" class="animable"></path><g id="elp0qmjhbkj3f" class=""><path d="M190.08,167.74l-5.94-2a9.68,9.68,0,0,0,.88,3.38c1,1.95,4.31,2.68,6.67,2.44A18.81,18.81,0,0,1,190.08,167.74Z" style="opacity: 0.2; transform-origin: 187.915px 168.672px;" class="animable" id="elv0p5zchoem"></path></g><path d="M171,152.27c2.3,8.33,3.09,11.9,8.26,15.34,7.79,5.16,17.52.52,17.76-8.33.22-8-3.57-20.25-12.54-21.87A11.79,11.79,0,0,0,171,152.27Z" style="fill: rgb(255, 139, 123); transform-origin: 183.784px 153.488px;" id="elj6af9owcij" class="animable"></path><path d="M183.45,136.05c-.68,5.66-4.9,25.12-12.86,25-6.57-5.73-3.33-16.52-1.29-20.91S183.45,136.05,183.45,136.05Z" style="fill: rgb(38, 50, 56); transform-origin: 175.063px 148.548px;" id="el1vedk6w9x6" class="animable"></path><path d="M180.1,140.06c4,2.13,11.87,3.06,10.62-.19s-.89-6-6.31-5.88S180.1,140.06,180.1,140.06Z" style="fill: rgb(38, 50, 56); transform-origin: 185.43px 137.989px;" id="elxygzeutsbz" class="animable"></path><path d="M171.32,160.16a6.27,6.27,0,0,0,3.14,3.66c2,1,3.39-.68,3.19-2.77-.18-1.88-1.43-4.66-3.59-4.78A2.84,2.84,0,0,0,171.32,160.16Z" style="fill: rgb(255, 139, 123); transform-origin: 174.394px 160.192px;" id="el4hn1ngxu468" class="animable"></path><path d="M183.7,234.67s-2,68.82,3.55,94.8c5.73,27,16.93,65.66,16.93,65.66l16.32-.79s-7.9-49-9.82-69.9c-2.64-28.8-2-96.72-2-96.72Z" style="fill: #0D69E3; transform-origin: 201.925px 311.425px;" id="elnioyhr58jss" class="animable"></path><g id="elz1hpzdyben" class=""><path d="M183.7,234.67s-2,68.82,3.55,94.8c5.73,27,16.93,65.66,16.93,65.66l16.32-.79s-7.9-49-9.82-69.9c-2.64-28.8-2-96.72-2-96.72Z" style="fill: rgb(250, 250, 250); opacity: 0.4; transform-origin: 201.925px 311.425px;" class="animable" id="el8d2c3j46eld"></path></g><g id="el0srt4mkdcsid" class=""><path d="M208.6,253.61c-2.54-6.37-4.77-9.88-5-3.53-.58,13.43,1.76,28.78,5.42,36.39C208.74,275.09,208.65,263.47,208.6,253.61Z" style="opacity: 0.2; transform-origin: 206.266px 266.598px;" class="animable" id="elfndc01l1h7p"></path></g><polygon points="221.64 395.13 203.03 396.02 200.84 389.22 221 387.65 221.64 395.13" style="fill: rgb(38, 50, 56); transform-origin: 211.24px 391.835px;" id="elhzdmzt4epc7" class="animable"></polygon><path d="M192.7,232.16s20.89,56.22,35,87.26c11.37,25.08,51.68,60.11,51.68,60.11l9.16-7.74s-29.14-39.94-37-57c-25.18-54.43-18.61-77.49-33.75-89.66Z" style="fill: #0D69E3; transform-origin: 240.62px 302.33px;" id="eldarvgsx2yi5" class="animable"></path><g id="elnuqzkd3m43" class=""><path d="M192.7,232.16s20.89,56.22,35,87.26c11.37,25.08,51.68,60.11,51.68,60.11l9.16-7.74s-29.14-39.94-37-57c-25.18-54.43-18.61-77.49-33.75-89.66Z" style="fill: rgb(250, 250, 250); opacity: 0.4; transform-origin: 240.62px 302.33px;" class="animable" id="elt4e5dxog10t"></path></g><polygon points="289.28 371.7 279.04 380.74 273.83 376.97 285.9 366.68 289.28 371.7" style="fill: rgb(38, 50, 56); transform-origin: 281.555px 373.71px;" id="elci63yoee2ie" class="animable"></polygon><path d="M217.72,223l2.39,2.62c.18.21,0,.53-.43.63l-35.72,10c-.31.09-.61,0-.68-.18l-1.16-3c-.08-.21.14-.46.48-.56l34.49-9.6A.65.65,0,0,1,217.72,223Z" style="fill: #0D69E3; transform-origin: 201.141px 229.576px;" id="elshgpsoyzwh" class="animable"></path><path d="M214.16,228.19l.93-.26c.18-.05.29-.18.25-.3l-1.54-3.84c0-.11-.23-.16-.41-.11l-.93.26c-.18.05-.3.18-.25.3l1.54,3.84C213.79,228.19,214,228.24,214.16,228.19Z" style="fill: rgb(38, 50, 56); transform-origin: 213.773px 225.935px;" id="el75swk9zkqpl" class="animable"></path><path d="M186.64,235.85l.93-.26c.18-.05.3-.18.25-.3l-1.54-3.84c0-.11-.23-.16-.41-.11l-.93.26c-.18.05-.29.18-.25.3l1.54,3.84C186.27,235.85,186.46,235.9,186.64,235.85Z" style="fill: rgb(38, 50, 56); transform-origin: 186.257px 233.595px;" id="el5ye4qxb090d" class="animable"></path><path d="M200.4,232l.93-.26c.18,0,.29-.18.25-.3L200,227.62c0-.11-.23-.16-.41-.11l-.93.26c-.18,0-.29.18-.25.3l1.54,3.84C200,232,200.22,232.07,200.4,232Z" style="fill: rgb(38, 50, 56); transform-origin: 199.995px 229.76px;" id="el3tfv3qf5wzs" class="animable"></path><path d="M184.33,151.93c.14.69.63,1.17,1.07,1.07s.7-.73.56-1.41-.63-1.17-1.08-1.08S184.18,151.24,184.33,151.93Z" style="fill: rgb(38, 50, 56); transform-origin: 185.142px 151.756px;" id="ell9pqlhylz6j" class="animable"></path><path d="M192.1,150.29c.14.69.62,1.17,1.07,1.08s.7-.73.55-1.42-.62-1.17-1.07-1.07S192,149.61,192.1,150.29Z" style="fill: rgb(38, 50, 56); transform-origin: 192.919px 150.124px;" id="elh5isuau6fb" class="animable"></path><path d="M192.46,149l1.55-.82S193.43,149.6,192.46,149Z" style="fill: rgb(38, 50, 56); transform-origin: 193.235px 148.664px;" id="el7rwkijcz1xp" class="animable"></path><path d="M190.29,151.91a18.76,18.76,0,0,0,3.38,3.87,3,3,0,0,1-2.36,1Z" style="fill: rgb(255, 86, 82); transform-origin: 191.98px 154.346px;" id="el25o2dqqpwn4" class="animable"></path><path d="M189.54,159.94a.2.2,0,0,0,.08-.21.19.19,0,0,0-.24-.16,5.58,5.58,0,0,1-4.89-1.2.21.21,0,1,0-.29.29,5.85,5.85,0,0,0,5.26,1.31Z" style="fill: rgb(38, 50, 56); transform-origin: 186.864px 159.204px;" id="eleilndis1spa" class="animable"></path><path d="M181.61,149.85a.36.36,0,0,0,.14-.16,3.29,3.29,0,0,1,2.3-1.89.41.41,0,0,0-.11-.82,4.09,4.09,0,0,0-2.94,2.36.41.41,0,0,0,.61.51Z" style="fill: rgb(38, 50, 56); transform-origin: 182.683px 148.452px;" id="elkrlslc5xxc" class="animable"></path><path d="M195,145.91l.06,0a.42.42,0,0,0,0-.59,4.16,4.16,0,0,0-3.58-1.19.41.41,0,0,0,.18.81,3.25,3.25,0,0,1,2.82,1A.41.41,0,0,0,195,145.91Z" style="fill: rgb(38, 50, 56); transform-origin: 193.169px 145.051px;" id="els6mgyambq9n" class="animable"></path><path d="M215.76,180.49c.77.89,1.73,1.93,2.63,2.9s1.87,1.93,2.83,2.87c1.93,1.87,3.91,3.7,6,5.4a61.36,61.36,0,0,0,13.19,8.53c4.4,2,9.75,2.85,15.12,3.23,2.7.2,5.44.27,8.19.22s5.55-.16,8.23-.37l.81,4.34a81.62,81.62,0,0,1-17.33,2.51,60,60,0,0,1-9-.33,37.83,37.83,0,0,1-9.13-2.16,53.6,53.6,0,0,1-8.23-4,65.79,65.79,0,0,1-7.39-5.09A85.22,85.22,0,0,1,215,192.7c-1.07-1-2.1-2.09-3.12-3.17s-2-2.14-3-3.42Z" style="fill: rgb(255, 139, 123); transform-origin: 240.82px 195.327px;" id="elhdmhbgj5ox7" class="animable"></path><path d="M270.83,208l8.61-1.35-7.1-6.77s-3.38,2.74-3.38,6.36Z" style="fill: rgb(255, 139, 123); transform-origin: 274.2px 203.94px;" id="elpv2ekioe3v9" class="animable"></path><polygon points="284.08 199.83 278.09 196.45 272.33 199.93 279.44 206.69 284.08 199.83" style="fill: rgb(255, 139, 123); transform-origin: 278.205px 201.57px;" id="elrzg60xlnbz" class="animable"></polygon><path d="M209.64,172.63c3.71.09,11.08,10.7,11.08,10.7l-10.61,13.15s-6.18-8.66-6-13.47C204.35,178,205.42,172.53,209.64,172.63Z" style="fill: rgb(38, 50, 56); transform-origin: 212.413px 184.554px;" id="elqcuhijxy1t" class="animable"></path><path d="M286.58,390.49a2,2,0,0,1-.3-.14.69.69,0,0,1-.38-.61c0-1.11,2.56-2.89,2.86-3.09a.2.2,0,0,1,.22,0,.22.22,0,0,1,.1.21c-.19,1.14-.66,3.13-1.66,3.59A1.07,1.07,0,0,1,286.58,390.49Zm2-3.21c-1,.74-2.28,1.87-2.27,2.45,0,.08,0,.17.18.26a.75.75,0,0,0,.75.09C287.79,389.83,288.27,388.8,288.58,387.28Z" style="fill: #0D69E3; transform-origin: 287.491px 388.587px;" id="elc23jkeex8ze" class="animable"></path><path d="M285.3,387.86a1.23,1.23,0,0,1-.23-.11.73.73,0,0,1-.26-.87,1.07,1.07,0,0,1,.59-.69c1.14-.55,3.46.4,3.55.44a.21.21,0,0,1,.05.36A5.54,5.54,0,0,1,285.3,387.86Zm3.05-1a4.53,4.53,0,0,0-2.77-.29.65.65,0,0,0-.38.44c-.07.25,0,.35.1.4.51.34,2.19,0,3.12-.53Z" style="fill: #0D69E3; transform-origin: 286.919px 386.959px;" id="elk8n2r1liztb" class="animable"></path><path d="M204.85,406.93a3.44,3.44,0,0,1-2-.48,1.29,1.29,0,0,1-.52-1,.6.6,0,0,1,.26-.56c.93-.63,4.45,1,5.15,1.29a.21.21,0,0,1-.05.39A13.53,13.53,0,0,1,204.85,406.93Zm-1.65-1.78a.75.75,0,0,0-.4.08c-.05,0-.09.08-.08.2a.85.85,0,0,0,.36.69c.61.46,2,.52,3.88.17A12.83,12.83,0,0,0,203.2,405.15Z" style="fill: #0D69E3; transform-origin: 205.089px 405.842px;" id="el66halepmsf8" class="animable"></path><path d="M207.63,406.58l-.08,0c-1.16-.48-3.52-2.36-3.38-3.34,0-.21.17-.48.7-.54,2-.25,2.92,3.48,3,3.64a.21.21,0,0,1-.07.21A.21.21,0,0,1,207.63,406.58Zm-2.57-3.5h-.14c-.22,0-.33.09-.35.19-.07.56,1.55,2.05,2.74,2.71C207,405.09,206.3,403.08,205.06,403.08Z" style="fill: #0D69E3; transform-origin: 206.02px 404.637px;" id="elf8ejko4iszp" class="animable"></path><path d="M184.69,150.59l1.55-.82S185.67,151.24,184.69,150.59Z" style="fill: rgb(38, 50, 56); transform-origin: 185.465px 150.263px;" id="elr34f2j1jvrf" class="animable"></path></g><g id="freepik--Plant--inject-1--inject-335" class="animable" style="transform-origin: 299.899px 227.285px;"><path d="M235.93,244.49S218.16,259,224.77,290.94c3.9,18.83,15.65,28.41,25.94,26.32s17.38-15.49,13.62-34.35C258,250.93,235.93,244.49,235.93,244.49Z" style="fill: #0D69E3; transform-origin: 244.324px 281.016px;" id="eldkrjlnh7m56" class="animable"></path><g id="elkvb2g568i8" class=""><path d="M235.93,244.49S218.16,259,224.77,290.94c3.9,18.83,15.65,28.41,25.94,26.32s17.38-15.49,13.62-34.35C258,250.93,235.93,244.49,235.93,244.49Z" style="fill: rgb(255, 255, 255); opacity: 0.2; transform-origin: 244.324px 281.016px;" class="animable" id="elh3ks6dbyyqq"></path></g><path d="M348,182.53s-32.63-7.25-63.23,29.08c-18,21.43-18.41,43.51-6.75,53.4s33.39,5.94,51.59-15.35C360.43,213.55,348,182.53,348,182.53Z" style="fill: #0D69E3; transform-origin: 310.294px 226.05px;" id="elscdsrrjdpya" class="animable"></path><path d="M305.1,38.33s-7.29,2-9.55,12.51c-1.34,6.2.93,10.65,4.31,11.39s7.3-2.35,8.68-8.53C310.88,43.21,305.1,38.33,305.1,38.33Z" style="fill: #0D69E3; transform-origin: 302.128px 50.334px;" id="eljivre2t7s0e" class="animable"></path><path d="M247.3,361.59a156.72,156.72,0,0,1-5.84-45.71A179.88,179.88,0,0,1,248,271.59a214.34,214.34,0,0,1,6.9-20.83c1.31-3.39,2.71-6.73,4.17-10,.7-1.67,1.5-3.28,2.24-4.92l1.12-2.38,1.09-2.3c5.83-12.25,11.38-24.58,16.39-37.09a382.19,382.19,0,0,0,13.13-38.13,233.5,233.5,0,0,0,7.75-39.42,142.2,142.2,0,0,0-1.24-40.09A100.34,100.34,0,0,0,284.5,38.84,102.45,102.45,0,0,1,304,75.31,148.47,148.47,0,0,1,310,116.89a244,244,0,0,1-3.49,42,391.33,391.33,0,0,1-9.19,41c-3.72,13.48-8,26.77-12.54,39.9l-.85,2.46-.43,1.23-.39,1.16c-.5,1.56-1.06,3.09-1.52,4.65-1,3.11-1.88,6.22-2.7,9.35a189.38,189.38,0,0,0-4,18.82,150.35,150.35,0,0,0-1.33,37.39,122.3,122.3,0,0,0,8.51,35Z" style="fill: #0D69E3; transform-origin: 275.714px 200.215px;" id="el3i2fy5g8enm" class="animable"></path><g id="eleu08d9v4hwa" class=""><path d="M247.3,361.59a156.72,156.72,0,0,1-5.84-45.71A179.88,179.88,0,0,1,248,271.59a214.34,214.34,0,0,1,6.9-20.83c1.31-3.39,2.71-6.73,4.17-10,.7-1.67,1.5-3.28,2.24-4.92l1.12-2.38,1.09-2.3c5.83-12.25,11.38-24.58,16.39-37.09a382.19,382.19,0,0,0,13.13-38.13,233.5,233.5,0,0,0,7.75-39.42,142.2,142.2,0,0,0-1.24-40.09A100.34,100.34,0,0,0,284.5,38.84,102.45,102.45,0,0,1,304,75.31,148.47,148.47,0,0,1,310,116.89a244,244,0,0,1-3.49,42,391.33,391.33,0,0,1-9.19,41c-3.72,13.48-8,26.77-12.54,39.9l-.85,2.46-.43,1.23-.39,1.16c-.5,1.56-1.06,3.09-1.52,4.65-1,3.11-1.88,6.22-2.7,9.35a189.38,189.38,0,0,0-4,18.82,150.35,150.35,0,0,0-1.33,37.39,122.3,122.3,0,0,0,8.51,35Z" style="opacity: 0.2; transform-origin: 275.714px 200.215px;" class="animable" id="el6h3suto5dqo"></path></g><path d="M316.23,325.84l-1,11.44-6.66,74.33a5.08,5.08,0,0,1-5.06,4.63H219.05a5.09,5.09,0,0,1-5.06-4.63l-6.65-74.33-1-11.44Z" style="fill: #0D69E3; transform-origin: 261.285px 371.04px;" id="elsc6nz6s7zb" class="animable"></path><g id="eltysqsvz98a" class=""><rect x="300.94" y="380.07" width="26.79" height="1" style="fill: #0D69E3; transform-origin: 314.335px 380.57px; transform: rotate(-84.89deg);" class="animable" id="elsd2z9owoewl"></rect></g><g id="elpub8lij18m" class=""><rect x="313.34" y="355.76" width="6.33" height="1" style="fill: #0D69E3; transform-origin: 316.505px 356.26px; transform: rotate(-84.8572deg);" class="animable" id="el2tfb1o7ubpt"></rect></g><path d="M244.68,90.35s-18.86,25.11.37,65.37c11.34,23.74,30.09,32.61,43.07,26.47s18-26.27,6.86-50.09C276.05,91.7,244.68,90.35,244.68,90.35Z" style="fill: #0D69E3; transform-origin: 268.768px 137.212px;" id="el0xqn73s8qvx" class="animable"></path><g id="elokk5t7kb6q" class=""><path d="M244.68,90.35s-18.86,25.11.37,65.37c11.34,23.74,30.09,32.61,43.07,26.47s18-26.27,6.86-50.09C276.05,91.7,244.68,90.35,244.68,90.35Z" style="opacity: 0.2; transform-origin: 268.768px 137.212px;" class="animable" id="el6xzkedtdrwb"></path></g><g id="elazqznpevzkv" class=""><polygon points="316.23 325.84 315.2 337.28 207.34 337.28 206.31 325.84 316.23 325.84" style="opacity: 0.2; transform-origin: 261.27px 331.56px;" class="animable" id="elly9nwhwq8j"></polygon></g><rect x="197.38" y="311.73" width="127.77" height="19.83" rx="2.39" style="fill: #0D69E3; transform-origin: 261.265px 321.645px;" id="elw43hpbsrovr" class="animable"></rect><g id="elh76dmqicww" class=""><circle cx="346.35" cy="115.25" r="40.04" style="fill: #0D69E3; transform-origin: 346.35px 115.25px; transform: rotate(-36.96deg);" class="animable" id="elx9ekj5jbe3r"></circle></g><g id="elmsrfdltxr3m" class=""><path d="M378.47,125.19a32.8,32.8,0,1,0-58.66,10.71,33.63,33.63,0,1,1,58.66-10.71Z" style="opacity: 0.1; transform-origin: 346.346px 108.755px;" class="animable" id="elhn7jiiy5ur4"></path></g><path d="M358.69,121.06l-4,8.47a2.58,2.58,0,0,1-1.56,1.36,2.64,2.64,0,0,1-2.1-.1l-7.45-3.52-2.82,6a2.58,2.58,0,0,1-1.54,1.39,2.67,2.67,0,0,1-2.06-.1,2.71,2.71,0,0,1-1.44-1.55,2.6,2.6,0,0,1,.09-2.08l2.85-6-7.39-3.49a2.72,2.72,0,0,1-1.29-3.6,2.7,2.7,0,0,1,3.59-1.29l17.29,8.16,1.66-3.52L335.31,113a2.67,2.67,0,0,1-1.3-3.6l4-8.44a2.68,2.68,0,0,1,3.6-1.29l7.33,3.46,2.82-6a2.66,2.66,0,0,1,3.68-1.24,2.56,2.56,0,0,1,1.37,1.51,2.62,2.62,0,0,1-.1,2.07l-2.82,6,7.51,3.54a2.65,2.65,0,0,1,1.41,1.56,2.57,2.57,0,0,1-.06,2.07,2.81,2.81,0,0,1-3.69,1.32l-17.29-8.16-1.64,3.49,17.22,8.13a2.67,2.67,0,0,1,1.42,1.56A2.53,2.53,0,0,1,358.69,121.06Z" style="fill: rgb(250, 250, 250); transform-origin: 346.362px 115.197px;" id="eld3o8k8sc0yu" class="animable"></path></g><defs>     <filter id="active" height="200%">         <feMorphology in="SourceAlpha" result="DILATED" operator="dilate" radius="2"></feMorphology>                <feFlood flood-color="#32DFEC" flood-opacity="1" result="PINK"></feFlood>        <feComposite in="PINK" in2="DILATED" operator="in" result="OUTLINE"></feComposite>        <feMerge>            <feMergeNode in="OUTLINE"></feMergeNode>            <feMergeNode in="SourceGraphic"></feMergeNode>        </feMerge>    </filter>    <filter id="hover" height="200%">        <feMorphology in="SourceAlpha" result="DILATED" operator="dilate" radius="2"></feMorphology>                <feFlood flood-color="#ff0000" flood-opacity="0.5" result="PINK"></feFlood>        <feComposite in="PINK" in2="DILATED" operator="in" result="OUTLINE"></feComposite>        <feMerge>            <feMergeNode in="OUTLINE"></feMergeNode>            <feMergeNode in="SourceGraphic"></feMergeNode>        </feMerge>            <feColorMatrix type="matrix" values="0   0   0   0   0                0   1   0   0   0                0   0   0   0   0                0   0   0   1   0 "></feColorMatrix>    </filter></defs></svg>