<svg xmlns="http://www.w3.org/2000/svg" version="1.1" xmlns:xlink="http://www.w3.org/1999/xlink" xmlns:svgjs="http://svgjs.com/svgjs" width="1440" height="560" preserveAspectRatio="none" viewBox="0 0 1440 560"><g mask="url(&quot;#SvgjsMask1005&quot;)" fill="none"><path d="M648.14 600.39C787.9 581.44 869.91 257.62 1096 257.32 1322.09 257.02 1419.42 470 1543.86 475.72" stroke="rgba(222, 198, 153, 0.6)" stroke-width="2"></path><path d="M689.43 605.14C810.66 586.21 874.01 295.65 1069.33 294.39 1264.64 293.13 1348.95 421.45 1449.22 423.19" stroke="rgba(222, 198, 153, 0.6)" stroke-width="2"></path><path d="M495.95 590.49C661.05 572.61 761.27 213.94 1041.93 212.14 1322.58 210.34 1448.28 329.08 1587.9 329.74" stroke="rgba(222, 198, 153, 0.6)" stroke-width="2"></path><path d="M544.49 624.62C643.37 622.96 622.42 504.11 919.54 498.9 1216.66 493.69 1471.41 244.86 1669.65 241.3" stroke="rgba(222, 198, 153, 0.6)" stroke-width="2"></path><path d="M242.1 625.75C427.02 619.02 559.44 331.35 918.09 324.27 1276.74 317.19 1419.25 146.58 1594.08 145.07" stroke="rgba(222, 198, 153, 0.6)" stroke-width="2"></path></g><defs><mask id="SvgjsMask1005"><rect width="1440" height="560" fill="#ffffff"></rect></mask></defs></svg>