<svg xmlns="http://www.w3.org/2000/svg" version="1.1" xmlns:xlink="http://www.w3.org/1999/xlink" xmlns:svgjs="http://svgjs.com/svgjs" width="1440" height="560" preserveAspectRatio="none" viewBox="0 0 1440 560"><g mask="url(&quot;#SvgjsMask1241&quot;)" fill="none"><circle r="57.1681183553162" cx="742.29" cy="478.77" stroke="rgba(8, 63, 136, 1)" stroke-width="1.01" stroke-dasharray="2, 2"></circle><rect width="145.68" height="145.68" clip-path="url(&quot;#SvgjsClipPath1242&quot;)" x="1072.49" y="247.67" fill="url(#SvgjsPattern1243)" transform="rotate(61.46, 1145.33, 320.51)"></rect><path d="M1032.5 240.81 L1032.05 307.14L1000.9570539292152 242.65705392921515z" stroke="rgba(10, 84, 182, 1)" stroke-width="2.35" stroke-dasharray="2, 2"></path><rect width="246.48" height="246.48" clip-path="url(&quot;#SvgjsClipPath1244&quot;)" x="133.3" y="-121.54" fill="url(#SvgjsPattern1245)" transform="rotate(352.39, 256.54, 1.7)"></rect><path d="M1326.48 457.9a5.6 5.6 0 1 0-3.17 10.74 5.6 5.6 0 1 0 3.17-10.74zM1321.95 473.25a5.6 5.6 0 1 0-3.17 10.74 5.6 5.6 0 1 0 3.17-10.74zM1317.42 488.59a5.6 5.6 0 1 0-3.18 10.74 5.6 5.6 0 1 0 3.18-10.74zM1312.89 503.94a5.6 5.6 0 1 0-3.18 10.74 5.6 5.6 0 1 0 3.18-10.74zM1320.19 422.68a5.6 5.6 0 1 0-3.17 10.74 5.6 5.6 0 1 0 3.17-10.74zM1315.66 438.03a5.6 5.6 0 1 0-3.17 10.74 5.6 5.6 0 1 0 3.17-10.74zM1311.13 453.37a5.6 5.6 0 1 0-3.17 10.74 5.6 5.6 0 1 0 3.17-10.74zM1306.6 468.72a5.6 5.6 0 1 0-3.17 10.74 5.6 5.6 0 1 0 3.17-10.74zM1313.91 387.46a5.6 5.6 0 1 0-3.17 10.74 5.6 5.6 0 1 0 3.17-10.74zM1309.38 402.8a5.6 5.6 0 1 0-3.17 10.75 5.6 5.6 0 1 0 3.17-10.75zM1304.85 418.15a5.6 5.6 0 1 0-3.17 10.74 5.6 5.6 0 1 0 3.17-10.74zM1300.32 433.49a5.6 5.6 0 1 0-3.17 10.75 5.6 5.6 0 1 0 3.17-10.75z" fill="rgba(10, 84, 182, 1)"></path><rect width="120" height="120" clip-path="url(&quot;#SvgjsClipPath1246&quot;)" x="367.5" y="-59.54" fill="url(#SvgjsPattern1247)" transform="rotate(242.98, 427.5, 0.46)"></rect><path d="M754.55 462.29a5.6 5.6 0 1 0 8.46-7.33 5.6 5.6 0 1 0-8.46 7.33zM766.64 451.81a5.6 5.6 0 1 0 8.46-7.34 5.6 5.6 0 1 0-8.46 7.34zM778.73 441.33a5.6 5.6 0 1 0 8.46-7.34 5.6 5.6 0 1 0-8.46 7.34zM790.82 430.85a5.6 5.6 0 1 0 8.46-7.34 5.6 5.6 0 1 0-8.46 7.34zM740.86 495.35a5.6 5.6 0 1 0 8.46-7.34 5.6 5.6 0 1 0-8.46 7.34zM752.95 484.86a5.6 5.6 0 1 0 8.46-7.33 5.6 5.6 0 1 0-8.46 7.33zM765.03 474.38a5.6 5.6 0 1 0 8.47-7.34 5.6 5.6 0 1 0-8.47 7.34zM777.12 463.9a5.6 5.6 0 1 0 8.46-7.34 5.6 5.6 0 1 0-8.46 7.34z" fill="rgba(8, 63, 136, 1)"></path><circle r="82.85643385991135" cx="980.97" cy="472.54" stroke="rgba(8, 63, 136, 1)" stroke-width="2.08" stroke-dasharray="3, 2"></circle><rect width="156" height="156" clip-path="url(&quot;#SvgjsClipPath1248&quot;)" x="159.86" y="146.43" fill="url(#SvgjsPattern1249)" transform="rotate(125.2, 237.86, 224.43)"></rect><circle r="64.61098506967406" cx="1337.65" cy="171.16" stroke="rgba(10, 84, 182, 1)" stroke-width="1.55" stroke-dasharray="3, 2"></circle><rect width="96" height="96" clip-path="url(&quot;#SvgjsClipPath1250&quot;)" x="448.41" y="-17.61" fill="url(#SvgjsPattern1251)" transform="rotate(62.77, 496.41, 30.39)"></rect><rect width="367.08000000000004" height="367.08000000000004" clip-path="url(&quot;#SvgjsClipPath1252&quot;)" x="759.16" y="38.43" fill="url(#SvgjsPattern1253)" transform="rotate(221.61, 942.7, 221.97)"></rect></g><defs><mask id="SvgjsMask1241"><rect width="1440" height="560" fill="#ffffff"></rect></mask><pattern x="0" y="0" width="145.68" height="12.14" patternUnits="userSpaceOnUse" id="SvgjsPattern1243"><rect width="145.68" height="6.07" x="0" y="0" fill="rgba(8, 63, 136, 1)"></rect><rect width="145.68" height="6.07" x="0" y="6.07" fill="rgba(0, 0, 0, 0)"></rect></pattern><clipPath id="SvgjsClipPath1242"><circle r="36.42" cx="1145.33" cy="320.51"></circle></clipPath><pattern x="0" y="0" width="246.48" height="9.48" patternUnits="userSpaceOnUse" id="SvgjsPattern1245"><rect width="246.48" height="4.74" x="0" y="0" fill="rgba(8, 63, 136, 1)"></rect><rect width="246.48" height="4.74" x="0" y="4.74" fill="rgba(0, 0, 0, 0)"></rect></pattern><clipPath id="SvgjsClipPath1244"><circle r="61.62" cx="256.54" cy="1.7"></circle></clipPath><pattern x="0" y="0" width="120" height="6" patternUnits="userSpaceOnUse" id="SvgjsPattern1247"><rect width="120" height="3" x="0" y="0" fill="rgba(10, 84, 182, 1)"></rect><rect width="120" height="3" x="0" y="3" fill="rgba(0, 0, 0, 0)"></rect></pattern><clipPath id="SvgjsClipPath1246"><circle r="30" cx="427.5" cy="0.46"></circle></clipPath><pattern x="0" y="0" width="6" height="6" patternUnits="userSpaceOnUse" id="SvgjsPattern1249"><path d="M3 1L3 5M1 3L5 3" stroke="rgba(8, 63, 136, 1)" fill="none" stroke-width="1.79"></path></pattern><clipPath id="SvgjsClipPath1248"><circle r="39" cx="237.86" cy="224.43"></circle></clipPath><pattern x="0" y="0" width="96" height="6" patternUnits="userSpaceOnUse" id="SvgjsPattern1251"><rect width="96" height="3" x="0" y="0" fill="rgba(10, 84, 182, 1)"></rect><rect width="96" height="3" x="0" y="3" fill="rgba(0, 0, 0, 0)"></rect></pattern><clipPath id="SvgjsClipPath1250"><circle r="24" cx="496.41" cy="30.39"></circle></clipPath><pattern x="0" y="0" width="7.98" height="7.98" patternUnits="userSpaceOnUse" id="SvgjsPattern1253"><path d="M0 7.98L3.99 0L7.98 7.98" stroke="rgba(10, 84, 182, 1)" fill="none"></path></pattern><clipPath id="SvgjsClipPath1252"><circle r="91.77000000000001" cx="942.7" cy="221.97"></circle></clipPath></defs></svg>